<svg id="wave"  style="color:red; fill:red;" viewBox="0 0 1440 390" version="1.1" xmlns="http://www.w3.org/2000/svg"><path style="transform:translate(0, 0px); opacity:1" fill="url(#sw-gradient-0)" d="M0,0L30,0C60,0,120,0,180,45.5C240,91,300,182,360,195C420,208,480,143,540,143C600,143,660,208,720,247C780,286,840,299,900,312C960,325,1020,338,1080,318.5C1140,299,1200,247,1260,188.5C1320,130,1380,65,1440,58.5C1500,52,1560,104,1620,123.5C1680,143,1740,130,1800,110.5C1860,91,1920,65,1980,58.5C2040,52,2100,65,2160,110.5C2220,156,2280,234,2340,279.5C2400,325,2460,338,2520,292.5C2580,247,2640,143,2700,123.5C2760,104,2820,169,2880,169C2940,169,3000,104,3060,123.5C3120,143,3180,247,3240,266.5C3300,286,3360,221,3420,201.5C3480,182,3540,208,3600,182C3660,156,3720,78,3780,91C3840,104,3900,208,3960,234C4020,260,4080,208,4140,182C4200,156,4260,156,4290,156L4320,156L4320,390L4290,390C4260,390,4200,390,4140,390C4080,390,4020,390,3960,390C3900,390,3840,390,3780,390C3720,390,3660,390,3600,390C3540,390,3480,390,3420,390C3360,390,3300,390,3240,390C3180,390,3120,390,3060,390C3000,390,2940,390,2880,390C2820,390,2760,390,2700,390C2640,390,2580,390,2520,390C2460,390,2400,390,2340,390C2280,390,2220,390,2160,390C2100,390,2040,390,1980,390C1920,390,1860,390,1800,390C1740,390,1680,390,1620,390C1560,390,1500,390,1440,390C1380,390,1320,390,1260,390C1200,390,1140,390,1080,390C1020,390,960,390,900,390C840,390,780,390,720,390C660,390,600,390,540,390C480,390,420,390,360,390C300,390,240,390,180,390C120,390,60,390,30,390L0,390Z"></path></svg>